<mxfile host="app.diagrams.net" modified="2024-05-07T00:09:03.669Z" agent="Mozilla/5.0 (X11; Linux x86_64) AppleWebKit/537.36 (KHTML, like Gecko) Chrome/124.0.0.0 Safari/537.36" etag="S5UvnAcoi3x5xgjcGaR4" version="24.3.0" type="google">
  <diagram name="Página-1" id="J17Znx-erar25TnJhAiI">
    <mxGraphModel grid="1" page="1" gridSize="10" guides="1" tooltips="1" connect="1" arrows="1" fold="1" pageScale="1" pageWidth="827" pageHeight="1169" math="0" shadow="0">
      <root>
        <mxCell id="0" />
        <mxCell id="1" parent="0" />
        <mxCell id="IiYLuyDY6mluZriZa4J0-8" value="" style="rounded=0;whiteSpace=wrap;html=1;fillColor=#dae8fc;strokeColor=#6c8ebf;" vertex="1" parent="1">
          <mxGeometry x="40" y="120" width="190" height="240" as="geometry" />
        </mxCell>
        <mxCell id="IiYLuyDY6mluZriZa4J0-10" value="" style="rounded=0;whiteSpace=wrap;html=1;fillColor=#d5e8d4;strokeColor=#82b366;" vertex="1" parent="1">
          <mxGeometry x="260" y="120" width="190" height="240" as="geometry" />
        </mxCell>
        <mxCell id="IiYLuyDY6mluZriZa4J0-13" value="" style="rounded=0;whiteSpace=wrap;html=1;fillColor=#ffe6cc;strokeColor=#d79b00;" vertex="1" parent="1">
          <mxGeometry x="480" y="120" width="190" height="240" as="geometry" />
        </mxCell>
        <mxCell id="IiYLuyDY6mluZriZa4J0-16" value="" style="rounded=0;whiteSpace=wrap;html=1;fillColor=#f8cecc;strokeColor=#b85450;" vertex="1" parent="1">
          <mxGeometry x="700" y="120" width="190" height="240" as="geometry" />
        </mxCell>
        <mxCell id="IiYLuyDY6mluZriZa4J0-19" style="edgeStyle=orthogonalEdgeStyle;rounded=0;orthogonalLoop=1;jettySize=auto;html=1;" edge="1" parent="1" source="IiYLuyDY6mluZriZa4J0-1" target="IiYLuyDY6mluZriZa4J0-11">
          <mxGeometry relative="1" as="geometry" />
        </mxCell>
        <mxCell id="IiYLuyDY6mluZriZa4J0-1" value="Cria Pedido" style="rounded=0;whiteSpace=wrap;html=1;" vertex="1" parent="1">
          <mxGeometry x="75" y="150" width="120" height="60" as="geometry" />
        </mxCell>
        <mxCell id="IiYLuyDY6mluZriZa4J0-9" value="Serviço Pedidos" style="text;html=1;align=left;verticalAlign=middle;whiteSpace=wrap;rounded=0;" vertex="1" parent="1">
          <mxGeometry x="40" y="100" width="120" height="20" as="geometry" />
        </mxCell>
        <mxCell id="IiYLuyDY6mluZriZa4J0-20" style="edgeStyle=orthogonalEdgeStyle;rounded=0;orthogonalLoop=1;jettySize=auto;html=1;" edge="1" parent="1" source="IiYLuyDY6mluZriZa4J0-11" target="IiYLuyDY6mluZriZa4J0-14">
          <mxGeometry relative="1" as="geometry" />
        </mxCell>
        <mxCell id="IiYLuyDY6mluZriZa4J0-11" value="Verifica Cliente" style="rounded=0;whiteSpace=wrap;html=1;" vertex="1" parent="1">
          <mxGeometry x="295" y="150" width="120" height="60" as="geometry" />
        </mxCell>
        <mxCell id="IiYLuyDY6mluZriZa4J0-12" value="Serviço Cliente" style="text;html=1;align=left;verticalAlign=middle;whiteSpace=wrap;rounded=0;" vertex="1" parent="1">
          <mxGeometry x="260" y="100" width="120" height="20" as="geometry" />
        </mxCell>
        <mxCell id="IiYLuyDY6mluZriZa4J0-21" style="edgeStyle=orthogonalEdgeStyle;rounded=0;orthogonalLoop=1;jettySize=auto;html=1;" edge="1" parent="1" source="IiYLuyDY6mluZriZa4J0-14" target="IiYLuyDY6mluZriZa4J0-17">
          <mxGeometry relative="1" as="geometry" />
        </mxCell>
        <mxCell id="IiYLuyDY6mluZriZa4J0-14" value="Cria Comanda" style="rounded=0;whiteSpace=wrap;html=1;" vertex="1" parent="1">
          <mxGeometry x="515" y="150" width="120" height="60" as="geometry" />
        </mxCell>
        <mxCell id="IiYLuyDY6mluZriZa4J0-15" value="Serviço Cozinha" style="text;html=1;align=left;verticalAlign=middle;whiteSpace=wrap;rounded=0;" vertex="1" parent="1">
          <mxGeometry x="480" y="100" width="120" height="20" as="geometry" />
        </mxCell>
        <mxCell id="IiYLuyDY6mluZriZa4J0-23" style="edgeStyle=orthogonalEdgeStyle;rounded=0;orthogonalLoop=1;jettySize=auto;html=1;entryX=1;entryY=0.5;entryDx=0;entryDy=0;exitX=0.5;exitY=1;exitDx=0;exitDy=0;" edge="1" parent="1" source="IiYLuyDY6mluZriZa4J0-17" target="IiYLuyDY6mluZriZa4J0-22">
          <mxGeometry relative="1" as="geometry" />
        </mxCell>
        <mxCell id="IiYLuyDY6mluZriZa4J0-17" value="Autoriza Cartão" style="rounded=0;whiteSpace=wrap;html=1;" vertex="1" parent="1">
          <mxGeometry x="735" y="150" width="120" height="60" as="geometry" />
        </mxCell>
        <mxCell id="IiYLuyDY6mluZriZa4J0-18" value="Serviço Autorizador" style="text;html=1;align=left;verticalAlign=middle;whiteSpace=wrap;rounded=0;" vertex="1" parent="1">
          <mxGeometry x="700" y="100" width="120" height="20" as="geometry" />
        </mxCell>
        <mxCell id="IiYLuyDY6mluZriZa4J0-25" style="edgeStyle=orthogonalEdgeStyle;rounded=0;orthogonalLoop=1;jettySize=auto;html=1;" edge="1" parent="1" source="IiYLuyDY6mluZriZa4J0-22" target="IiYLuyDY6mluZriZa4J0-24">
          <mxGeometry relative="1" as="geometry" />
        </mxCell>
        <mxCell id="IiYLuyDY6mluZriZa4J0-22" value="Aprova Comanda" style="rounded=0;whiteSpace=wrap;html=1;" vertex="1" parent="1">
          <mxGeometry x="515" y="240" width="120" height="60" as="geometry" />
        </mxCell>
        <mxCell id="IiYLuyDY6mluZriZa4J0-24" value="Aprova Pedido" style="rounded=0;whiteSpace=wrap;html=1;" vertex="1" parent="1">
          <mxGeometry x="75" y="240" width="120" height="60" as="geometry" />
        </mxCell>
        <mxCell id="IiYLuyDY6mluZriZa4J0-26" value="Fluxo Feliz" style="text;html=1;align=left;verticalAlign=middle;whiteSpace=wrap;rounded=0;fontSize=16;fontStyle=1" vertex="1" parent="1">
          <mxGeometry x="40" y="50" width="150" height="30" as="geometry" />
        </mxCell>
      </root>
    </mxGraphModel>
  </diagram>
</mxfile>
